<?xml version="1.0" standalone="no"?>
<!DOCTYPE svg PUBLIC "-//W3C//DTD SVG 20010904//EN"
 "http://www.w3.org/TR/2001/REC-SVG-20010904/DTD/svg10.dtd">
<svg version="1.0" xmlns="http://www.w3.org/2000/svg"
 width="700.000000pt" height="700.000000pt" viewBox="0 0 700.000000 700.000000"
 preserveAspectRatio="xMidYMid meet">
<metadata>
Created by potrace 1.11, written by Peter Selinger 2001-2013
</metadata>
<g transform="translate(0.000000,700.000000) scale(0.100000,-0.100000)"
fill="#000000" stroke="none">
<path d="M3450 6979 c-25 -12 -153 -65 -285 -119 -339 -139 -335 -137 -490
-214 -184 -91 -330 -190 -428 -290 -92 -93 -123 -136 -164 -226 -45 -96 -61
-181 -58 -302 4 -116 21 -189 65 -280 36 -74 56 -101 132 -179 75 -77 158
-129 363 -228 255 -123 342 -169 430 -227 129 -85 219 -183 266 -288 18 -42
41 -166 31 -166 -3 0 -67 47 -143 105 -119 91 -288 205 -303 205 -3 0 -106 50
-229 110 -273 134 -437 240 -556 359 -141 140 -207 261 -235 427 -39 229 20
451 166 624 l57 68 -42 8 c-113 20 -241 -3 -368 -66 -94 -47 -102 -53 -215
-165 -123 -122 -195 -237 -249 -399 -93 -278 -46 -535 132 -713 76 -76 167
-128 301 -172 60 -19 357 -87 417 -95 17 -2 71 -11 120 -20 50 -9 104 -18 120
-21 17 -3 62 -12 100 -21 39 -9 78 -17 87 -19 46 -10 220 -59 278 -80 322
-113 493 -288 544 -557 17 -89 20 -700 4 -741 -26 -66 -62 -9 -179 279 -44
110 -101 237 -126 284 -163 304 -360 470 -608 515 -111 20 -175 21 -860 15
-357 -4 -393 -2 -565 31 -324 61 -522 253 -556 537 -4 31 -8 66 -9 77 -1 11
-3 24 -4 29 0 5 -22 -17 -47 -49 -46 -60 -122 -204 -129 -247 -30 -171 -26
-355 11 -488 54 -191 183 -302 389 -335 47 -7 227 -7 270 0 44 7 85 14 130 21
73 10 189 35 263 55 40 11 81 22 90 24 9 2 125 31 257 64 370 94 566 120 691
91 205 -49 380 -172 507 -358 189 -277 301 -580 265 -719 l-8 -31 -58 60 c-78
83 -255 260 -278 278 -126 102 -171 135 -239 177 -93 58 -213 106 -303 123
-67 12 -207 12 -257 0 -16 -4 -55 -13 -85 -20 -117 -27 -343 -129 -625 -282
-92 -50 -128 -68 -240 -119 -290 -131 -527 -124 -715 24 -69 55 -155 153 -205
235 -21 34 -42 59 -46 55 -28 -28 -31 -316 -5 -408 48 -164 182 -306 354 -372
55 -22 87 -27 182 -29 168 -5 272 23 433 113 33 18 61 33 63 33 14 0 340 242
364 269 8 10 202 155 251 189 74 50 208 118 279 142 81 27 207 36 285 20 123
-25 278 -115 347 -202 133 -167 286 -471 339 -678 11 -41 22 -84 25 -95 11
-42 13 -212 2 -253 -21 -82 -104 -142 -198 -142 -143 0 -181 103 -154 425 32
384 -4 539 -140 604 -85 41 -201 44 -279 8 -55 -26 -137 -100 -137 -123 0 -8
-4 -14 -9 -14 -10 0 -24 -49 -26 -95 -1 -37 27 -81 69 -106 34 -20 104 -25
168 -10 79 18 109 -9 102 -96 -5 -65 -21 -116 -73 -226 -26 -56 -54 -124 -61
-152 -48 -171 27 -353 167 -408 59 -23 181 -24 289 -1 43 9 90 18 104 20 14 3
42 9 63 15 21 6 67 11 102 12 55 1 68 -2 90 -23 40 -38 59 -135 34 -183 -18
-34 -51 -67 -84 -82 -33 -16 -134 -40 -205 -50 -204 -28 -240 -45 -240 -113 0
-91 78 -138 213 -129 93 6 172 36 272 102 83 55 278 239 406 383 l74 84 145
-150 c217 -225 311 -303 443 -365 196 -92 387 -50 387 85 0 18 -4 38 -8 45
-11 17 -76 43 -125 49 -243 30 -356 69 -394 137 -16 28 -15 102 1 146 29 81
87 90 286 45 114 -25 253 -42 308 -37 136 11 218 87 256 237 28 107 10 177
-115 451 -27 61 -32 172 -8 201 13 16 29 16 164 0 43 -6 118 29 139 65 37 62
17 146 -53 221 -56 62 -121 92 -201 94 -101 3 -154 -18 -221 -87 -50 -51 -61
-69 -84 -141 -40 -127 -46 -257 -20 -428 3 -25 8 -58 11 -75 2 -16 6 -65 8
-107 4 -67 1 -83 -20 -127 -58 -115 -209 -133 -277 -33 -34 50 -42 80 -56 197
-40 348 132 748 420 978 64 51 198 116 272 131 129 28 288 3 417 -65 131 -69
165 -93 520 -369 85 -66 160 -124 165 -128 65 -50 235 -136 332 -167 100 -33
130 -38 233 -38 125 0 228 34 345 113 105 71 186 195 221 335 11 41 13 232 4
280 -21 108 -16 107 -74 17 -118 -180 -266 -296 -419 -328 -60 -12 -188 -12
-242 1 -160 38 -261 82 -665 292 -313 163 -466 214 -660 218 -135 3 -210 -14
-335 -75 -179 -87 -293 -178 -556 -445 -65 -65 -121 -116 -125 -112 -4 4 -8
42 -8 85 -1 165 124 458 293 686 109 147 268 262 435 314 79 24 274 21 416 -7
63 -13 124 -25 135 -27 24 -4 167 -41 330 -84 66 -18 127 -34 135 -35 8 -2 74
-17 145 -33 121 -28 214 -45 310 -58 73 -10 249 -6 315 6 217 41 348 197 377
450 11 99 6 269 -11 342 -25 107 -104 257 -163 310 -19 17 -19 17 -21 -40 -2
-72 -34 -197 -67 -265 -50 -99 -152 -200 -250 -249 -44 -22 -172 -65 -230 -77
-177 -35 -295 -39 -1010 -30 -277 4 -361 -2 -483 -31 -235 -57 -421 -233 -575
-545 -30 -61 -69 -148 -87 -195 -18 -47 -37 -89 -42 -95 -4 -5 -8 -15 -8 -23
0 -20 -97 -217 -113 -230 -12 -10 -18 -8 -30 12 -14 21 -16 69 -13 388 3 343
4 367 25 433 78 247 244 392 576 503 101 33 281 78 387 96 15 3 63 12 105 20
85 17 120 23 173 32 19 3 53 9 75 14 22 5 56 12 75 15 73 12 229 55 310 84
144 53 231 114 321 228 10 12 31 51 49 87 134 283 36 682 -234 952 -82 83
-191 161 -262 188 -119 46 -236 59 -332 38 l-34 -7 51 -58 c196 -223 242 -552
117 -822 -115 -246 -363 -431 -911 -680 -72 -33 -215 -126 -356 -231 -75 -57
-140 -104 -143 -104 -2 0 -3 8 -2 18 6 33 16 107 16 115 0 4 14 35 31 70 42
82 150 188 262 256 48 29 198 108 335 176 248 124 337 176 402 235 19 18 44
39 55 48 38 31 104 123 135 187 37 78 60 218 54 330 -12 202 -126 394 -323
544 -186 142 -382 238 -911 446 -80 32 -166 68 -192 81 -26 13 -49 24 -50 24
-2 0 -23 -10 -48 -21z"/>
<path d="M919 5701 c-171 -98 -264 -219 -315 -414 -23 -88 -21 -242 5 -339 53
-202 195 -362 354 -398 141 -31 393 -32 532 -2 189 41 279 80 210 89 -96 13
-267 75 -375 135 -31 18 -97 74 -152 129 -117 120 -173 210 -192 312 -3 18 -8
43 -11 57 -21 110 -25 223 -13 355 5 48 7 91 6 95 -2 4 -24 -5 -49 -19z"/>
<path d="M6036 5708 c14 -73 21 -327 10 -375 -2 -11 -8 -42 -12 -68 -10 -70
-48 -168 -88 -228 -56 -84 -159 -190 -233 -240 -103 -69 -340 -159 -419 -159
-98 0 67 -63 253 -97 182 -33 462 -15 575 37 89 41 188 149 241 263 55 119 71
370 31 484 -59 169 -161 298 -304 384 -45 27 -60 27 -54 -1z"/>
<path d="M96 4288 c-16 -72 -18 -86 -24 -133 -9 -65 -8 -216 1 -283 13 -97 83
-230 162 -307 83 -81 204 -129 326 -128 193 1 334 67 507 239 102 102 120 141
60 130 -18 -3 -55 -8 -83 -12 -27 -3 -54 -8 -58 -11 -16 -9 -315 -13 -344 -4
-15 5 -53 14 -83 21 -105 24 -183 68 -268 152 -68 67 -113 144 -156 266 -29
83 -35 93 -40 70z"/>
<path d="M6870 4218 c-43 -127 -82 -191 -159 -268 -64 -64 -176 -133 -231
-144 -14 -2 -47 -10 -75 -17 -90 -22 -303 -19 -450 5 -11 2 -39 7 -61 10 -63
11 -63 -12 -1 -81 80 -88 175 -167 258 -216 105 -62 315 -88 429 -54 48 14
141 67 191 109 23 20 94 119 118 166 50 99 68 259 45 417 -15 111 -24 158 -28
163 -2 1 -18 -39 -36 -90z"/>
<path d="M45 2881 c9 -84 26 -140 62 -204 18 -32 33 -61 33 -63 0 -9 58 -93
80 -115 84 -85 178 -120 335 -125 87 -3 122 0 166 15 73 25 128 53 161 84 56
52 152 226 135 244 -4 3 -28 -4 -55 -15 -73 -32 -206 -45 -377 -39 -82 3 -161
8 -175 11 -14 3 -38 9 -55 12 -97 21 -212 108 -301 229 -14 18 -14 15 -9 -34z"/>
<path d="M6931 2886 c-67 -97 -199 -185 -311 -208 -69 -14 -377 -18 -465 -6
-54 7 -114 25 -130 39 -15 14 -35 10 -35 -7 0 -26 49 -120 95 -182 78 -107
214 -159 387 -148 146 9 239 46 315 126 51 54 140 217 158 288 15 64 27 142
20 142 -2 0 -18 -20 -34 -44z"/>
<path d="M2733 2470 c-77 -31 -57 -150 26 -150 56 0 97 62 71 109 -9 17 -60
53 -72 50 -2 0 -13 -4 -25 -9z"/>
<path d="M4235 2472 c-35 -7 -65 -43 -65 -78 0 -55 68 -92 120 -64 25 13 41
65 30 95 -11 28 -56 53 -85 47z"/>
<path d="M982 2313 c-53 -75 -181 -124 -337 -129 -125 -4 -176 5 -257 46 -55
27 -58 27 -58 9 0 -53 76 -154 147 -195 55 -33 100 -44 183 -45 121 -1 207 32
268 102 39 44 85 166 80 212 l-3 32 -23 -32z"/>
<path d="M5997 2332 c-8 -13 21 -130 43 -172 48 -94 123 -143 245 -158 165
-21 302 43 365 169 40 78 40 110 1 75 -42 -38 -124 -60 -236 -62 -177 -3 -291
31 -372 113 -23 23 -44 39 -46 35z"/>
<path d="M1096 2009 c-24 -35 -128 -108 -184 -129 -71 -27 -171 -36 -227 -20
-25 7 -48 10 -51 7 -9 -9 16 -48 63 -98 97 -104 230 -103 342 1 52 49 78 106
87 193 7 71 -2 85 -30 46z"/>
<path d="M5883 1963 c7 -80 26 -129 68 -178 97 -110 247 -123 344 -31 39 37
85 101 85 118 0 3 -21 -1 -47 -9 -47 -14 -154 -13 -199 3 -66 22 -146 70 -192
114 -29 27 -55 50 -59 50 -3 0 -3 -30 0 -67z"/>
<path d="M2900 2000 c-23 -15 -169 -58 -220 -65 -25 -3 -63 -8 -85 -12 -22 -3
-188 -7 -370 -8 -250 -2 -351 -6 -415 -18 -232 -44 -380 -137 -513 -323 l-38
-53 23 -12 c218 -119 452 -189 753 -224 210 -25 585 -25 915 0 249 18 639 25
745 12 33 -4 96 -9 140 -13 44 -3 100 -7 125 -9 299 -26 817 -23 995 5 33 5
82 12 109 15 28 4 52 8 56 10 3 2 26 6 50 10 56 8 209 48 292 76 109 37 278
117 278 132 0 28 -123 171 -193 225 -101 79 -255 140 -397 157 -25 4 -193 8
-375 10 -362 4 -483 16 -608 61 -40 14 -79 28 -87 30 -24 7 -70 -37 -74 -73
-8 -59 47 -87 229 -116 50 -9 119 -18 155 -22 100 -11 320 -53 370 -72 163
-61 221 -128 211 -245 0 -9 -13 -30 -27 -48 -49 -58 -137 -80 -319 -82 -136
-1 -202 6 -430 47 -42 7 -182 45 -237 64 -105 36 -211 128 -368 320 -74 91
-100 115 -100 93 0 -4 -10 -18 -23 -32 -12 -14 -42 -50 -67 -80 -71 -87 -191
-209 -240 -245 -46 -33 -141 -73 -195 -82 -16 -3 -38 -9 -47 -14 -10 -5 -18
-8 -18 -5 0 3 -15 0 -32 -5 -18 -5 -46 -12 -63 -15 -16 -2 -37 -7 -45 -9 -8
-2 -35 -7 -60 -10 -24 -4 -47 -8 -50 -10 -12 -8 -199 -18 -296 -17 -232 2
-344 72 -318 200 18 90 163 178 344 208 14 2 45 8 70 14 50 10 99 17 175 25
28 3 57 8 65 10 8 2 38 7 67 10 96 11 203 42 228 65 34 32 17 97 -32 119 -29
13 -34 13 -53 1z"/>
<path d="M836 1376 c-21 -8 -43 -21 -48 -28 -45 -65 -53 -156 -18 -213 43 -69
151 -99 229 -64 58 25 74 80 46 150 -4 11 3 26 19 42 74 74 173 -53 120 -154
-8 -17 -35 -43 -59 -58 l-45 -28 34 -33 c75 -74 195 -99 458 -94 106 1 211 5
233 8 22 3 64 8 94 11 29 3 85 10 125 15 39 6 87 12 106 14 29 4 213 33 325
52 17 2 62 11 100 19 39 8 86 17 105 20 19 3 73 17 121 30 108 31 196 39 229
22 21 -11 24 -19 22 -47 -5 -49 -36 -121 -92 -217 -120 -202 -149 -296 -123
-406 21 -91 76 -187 158 -276 100 -108 205 -135 520 -136 379 0 472 33 599
214 78 112 106 188 102 281 -4 90 -29 155 -120 308 -68 115 -114 227 -103 255
17 44 97 43 276 -2 128 -33 308 -69 430 -87 25 -4 55 -8 66 -10 11 -3 54 -9
95 -15 41 -5 86 -12 100 -14 14 -2 50 -6 80 -10 30 -3 66 -8 80 -10 112 -19
462 -27 570 -13 106 13 186 46 230 93 23 24 23 27 8 36 -107 60 -135 166 -61
230 36 33 61 33 93 1 29 -30 29 -31 15 -66 -19 -44 -19 -40 0 -76 24 -46 59
-64 124 -64 97 1 177 66 182 150 3 43 -20 116 -44 142 -70 75 -263 49 -672
-91 -71 -25 -159 -48 -195 -52 -36 -3 -78 -8 -95 -11 -78 -11 -273 -18 -500
-18 -250 1 -342 4 -825 30 -270 15 -706 11 -1070 -11 -327 -19 -786 -25 -980
-12 -205 13 -304 33 -489 96 -97 33 -212 69 -256 81 -107 28 -247 35 -299 16z"/>
<path d="M2510 855 c-69 -24 -138 -46 -155 -49 -16 -3 -39 -8 -50 -10 -11 -2
-42 -7 -70 -10 -27 -4 -61 -9 -75 -11 -14 -2 -52 -7 -85 -10 -33 -3 -94 -9
-135 -13 -41 -4 -147 -7 -235 -7 -139 1 -207 5 -327 19 -34 4 -36 -10 -9 -62
28 -54 86 -105 171 -150 148 -78 310 -95 538 -56 121 21 142 28 238 78 191
101 296 198 328 304 4 12 4 22 -1 21 -4 0 -64 -20 -133 -44z"/>
<path d="M4360 891 c0 -32 45 -104 100 -158 96 -95 309 -213 410 -228 25 -3
65 -11 90 -16 63 -15 203 -18 285 -7 181 23 345 118 394 228 18 41 19 66 3 56
-30 -18 -421 -27 -582 -13 -87 7 -114 10 -255 28 -126 16 -298 62 -427 114
-11 4 -18 3 -18 -4z"/>
<path d="M2699 718 c-18 -24 -51 -60 -73 -82 -122 -115 -147 -138 -187 -169
-82 -62 -222 -137 -257 -137 -27 -1 30 -43 115 -84 92 -45 314 -113 401 -123
39 -4 43 -3 38 14 -7 22 -33 136 -41 178 -7 41 -7 191 0 240 4 22 15 76 25
120 10 44 17 81 15 83 -1 2 -17 -16 -36 -40z"/>
<path d="M4270 760 c0 -3 10 -54 23 -115 32 -154 33 -253 3 -400 -14 -65 -23
-121 -20 -124 7 -7 113 16 248 55 116 34 295 117 303 141 2 6 -6 14 -19 18
-42 13 -133 58 -178 88 -73 50 -245 203 -296 265 -27 31 -52 61 -56 67 -4 5
-8 7 -8 5z"/>
</g>
</svg>
